<?xml version="1.0" encoding="utf-8"?>
<!-- Generator: Adobe Illustrator 27.6.1, SVG Export Plug-In . SVG Version: 6.00 Build 0)  -->
<svg version="1.1" id="Layer_1" xmlns="http://www.w3.org/2000/svg" xmlns:xlink="http://www.w3.org/1999/xlink" x="0px" y="0px"
	 viewBox="0 0 85.6 50" style="enable-background:new 0 0 85.6 50;" xml:space="preserve">
<path d="M71.6,24.9c-1,0.7-2,1.4-3,2.1c-2.9,2-5.8,4.1-8.7,6.1c-4,2.8-8,5.7-12.1,8.5c-3.1,2.2-6.2,4.4-9.3,6.5
	c-0.8,0.6-1.7,1.2-2.5,1.8c0,0-0.1,0.1-0.2,0.1c-0.1,0,0-0.1,0-0.2c0-0.9,0-1.7,0-2.6c0-7.3,0-14.7,0-22c0-8.3,0-16.6,0-24.9
	c0-0.1,0-0.2,0-0.3C36,0,36.1,0.1,36.1,0.1c1.7,1.1,3.3,2.3,5,3.4c4.4,3.1,8.8,6.1,13.2,9.2c4.7,3.3,9.4,6.5,14.1,9.8
	c1,0.7,2,1.4,2.9,2c0.1,0,0.1,0.1,0.2,0.1c0.1,0,0-0.1,0-0.2c0-0.1,0-0.2,0-0.3c0-7.9,0-15.8,0-23.7c0-0.3,0.1-0.3,0.3-0.3
	c4.5,0,8.9,0,13.4,0c0.4,0,0.4,0,0.4,0.3c0,16.1,0,32.3,0,48.4c0,0.2,0,0.3,0,0.4c0,0.2-0.1,0.2-0.2,0.2c-0.5,0-1,0-1.5,0
	c-3.8,0-7.5,0-11.3,0c-0.3,0-0.6,0-0.8,0c-0.1,0-0.2,0-0.2-0.2c0-0.1,0-0.1,0-0.2c0-8,0-16.1,0-24.2C71.6,25.1,71.6,25,71.6,24.9z"
	/>
<path d="M0,25C0,17,0,8.9,0,0.9c0-0.3,0-0.5,0-0.8C0,0,0.1,0,0.2,0.1c1.7,1.2,3.3,2.3,5,3.4c3,2.1,5.9,4.1,8.9,6.2
	c3.5,2.4,6.9,4.8,10.4,7.2c3.7,2.6,7.5,5.2,11.2,7.8c0.2,0.1,0.2,0.2,0,0.3c-1.3,0.9-2.6,1.9-4,2.8c-3.4,2.4-6.8,4.8-10.2,7.2
	c-4.6,3.2-9.1,6.4-13.7,9.7c-2.5,1.8-5,3.5-7.5,5.3c-0.1,0-0.1,0.1-0.2,0.1c-0.1,0,0-0.1,0-0.2c0-0.2,0-0.4,0-0.7C0,41.1,0,33,0,25z
	"/>
</svg>
