<?xml version="1.0" encoding="utf-8"?>
<!-- Generator: Adobe Illustrator 27.6.1, SVG Export Plug-In . SVG Version: 6.00 Build 0)  -->
<svg version="1.1" id="Layer_1" xmlns="http://www.w3.org/2000/svg" xmlns:xlink="http://www.w3.org/1999/xlink" x="0px" y="0px"
	 viewBox="0 0 50 50" style="enable-background:new 0 0 50 50;" xml:space="preserve">
<path d="M17,25c0,8.2,0,16.4,0,24.6c0,0.4,0,0.4-0.4,0.4c-2.4,0-4.8,0-7.2,0c-3.1,0-6.1,0-9.2,0C0.1,50,0,49.9,0,49.7
	C0,33.9,0,18.1,0,2.2c0-0.7,0-1.3,0-2C0,0.1,0,0,0.2,0C0.5,0,0.7,0,1,0c5.2,0,10.4,0,15.7,0C17,0,17,0,17,0.4C17,8.6,17,16.8,17,25z
	"/>
<path d="M33,25c0-8.2,0-16.4,0-24.7C33,0,33,0,33.3,0c5.3,0,10.5,0,15.8,0c0.2,0,0.4,0,0.6,0C49.9,0,50,0,50,0.3s0,0.7,0,1
	c0,15.8,0,31.7,0,47.5c0,0.3,0,0.6,0,0.8c0,0.5,0,0.4-0.4,0.4c-2.6,0-5.2,0-7.8,0c-2.8,0-5.5,0-8.3,0C33,50,33,50,33,49.4
	C33,41.3,33,33.1,33,25z"/>
</svg>
