<?xml version="1.0" encoding="utf-8"?>
<!-- Generator: Adobe Illustrator 27.6.1, SVG Export Plug-In . SVG Version: 6.00 Build 0)  -->
<svg version="1.1" id="Layer_1" xmlns="http://www.w3.org/2000/svg" xmlns:xlink="http://www.w3.org/1999/xlink" x="0px" y="0px"
	 viewBox="0 0 1086.1 338.1" style="enable-background:new 0 0 1086.1 338.1;" xml:space="preserve">
<g>
	<g>
		<path d="M157,0c17.9,28.8,35,56.5,52.3,84.4c34.5,0,68.7,0,105.5,0c-18.1,29.1-35.3,56.7-52.9,84.9c17.1,27.6,34.3,55.3,52.3,84.2
			c-36,0-70.1,0-104.4,0c-17.4,27.9-34.5,55.4-52.8,84.7c-17.9-29-35.1-56.7-52.5-84.6c-34.5,0-69,0-104.6,0
			c17.6-28.5,34.7-56.3,51.9-84.2C34.6,141.4,17.6,113.6,0,85c35.2,0,69.8,0,104.4,0C122,56.6,139.2,28.8,157,0z M193.2,224.7
			c12-19.2,23.5-37.5,34.8-55.6c-11.6-18.4-23.1-36.6-34.8-55.3c-23.6,0-47.5,0-72.5,0c-11.1,18-22.5,36.6-34,55.3
			c11.5,18.9,22.8,37.4,33.8,55.5C145.8,224.7,170,224.7,193.2,224.7z M157,283.8c6.3-10.6,11.8-19.9,17.6-29.5
			c-11.9,0-22.7,0-34.7,0C145.9,264.6,151.2,273.8,157,283.8z M174.8,84.1c-6-9.7-11.5-18.5-17.8-28.7
			c-6.1,10.2-11.4,19.1-17.1,28.7C152.2,84.1,162.9,84.1,174.8,84.1z M244.9,197.6c-5.9,8.9-11.5,17.2-17.9,26.9
			c12.9,0,23.9,0,35.8,0C256.6,215.2,251.1,206.9,244.9,197.6z M69.5,196.1c-6.6,11-11.8,19.5-17.2,28.5c11.6,0,22.4,0,33.8,0
			C80.7,215.3,75.7,206.8,69.5,196.1z M244.9,140.7c6.1-9.2,11.7-17.6,17.7-26.7c-11.7,0-22.7,0-35.3,0
			C233.6,123.5,239,131.8,244.9,140.7z M52.3,114c5.8,9.6,11.1,18.3,16.9,27.9c6-9.9,11.3-18.5,17-27.9C74.6,114,63.8,114,52.3,114z
			"/>
		<path d="M543.7,314.8c0-55.8,0-110.9,0-166.8c-21.6,0-42.7,0-64.3,0c0-16.1,0-41.4,0-57.7c21,0,42.4,0,64.3,0c0-22.8,0-44.7,0-67
			c15.9,0,41.2,0,57.3,0c0,22,0,44,0,66.7c22,0,43.3,0,64.9,0c0,16,0,41.4,0,57.5c-21.4,0-42.9,0-64.8,0c0,56.2,0,111.6,0,167.3
			C585.3,314.8,560,314.8,543.7,314.8z"/>
		<path d="M1069,256.6c-24.1,41.3-94.5,63.8-149.9,48.9c-56.7-15.3-101.7-73.4-103-132.9c-1.3-60.7,45.9-126.8,99.8-139.7
			c61.9-14.9,129.6,6.4,153.4,48.2c-83.5-35-128.8-27.9-166.8,26c-25.1,35.7-22,100.6,6.3,132.3C952,287.7,1003.4,293.5,1069,256.6z
			"/>
		<path d="M1037,148.7c15.6-5,30.1-9.8,47.9-15.5c-10.9,15.2-19.9,27.8-30,41.9c9.6,12.6,19.2,25.4,31.1,41c-18-6-32.7-10.9-48.2-16
			c-10.1,12.8-20,25.4-30.8,39.1c-0.2-17-0.3-32.8-0.5-48.5c-15.3-5-30.2-9.9-48.2-15.8c17.8-6,32.7-10.9,48.2-16.1
			c-0.1-16.1-0.2-32.1-0.3-49.4C1017.1,123.1,1027.1,136,1037,148.7z"/>
	</g>
</g>
</svg>
