<?xml version="1.0" encoding="utf-8"?>
<!-- Generator: Adobe Illustrator 27.6.1, SVG Export Plug-In . SVG Version: 6.00 Build 0)  -->
<svg version="1.1" id="Layer_1" xmlns="http://www.w3.org/2000/svg" xmlns:xlink="http://www.w3.org/1999/xlink" x="0px" y="0px"
	 viewBox="0 0 1242 394" style="enable-background:new 0 0 1242 394;" xml:space="preserve">
<style type="text/css">
	.st0{fill:#999999;}
</style>
<g>
	<g>
		<path class="st0" d="M366.3,98.3H243.6c-20.2-32.5-40-64.8-60.8-98.3c-20.7,33.6-40.7,65.9-61.2,99.1H0.1
			c20.5,33.3,40.2,65.7,60.2,98.3c-20,32.4-39.8,64.9-60.3,98h121.7c20.3,32.5,40.2,64.8,61.1,98.6c21.3-34.1,41.2-66.1,61.5-98.7
			h121.5c-20.9-33.7-41-65.9-60.8-98.1C325.2,164.4,345.2,132.2,366.3,98.3z M305.6,132.8c-7,10.6-13.5,20.4-20.6,31.2
			c-6.9-10.4-13.1-20.1-20.5-31.2H305.6z M182.7,64.5c7.3,11.9,13.7,22.2,20.7,33.5h-40.6C169.4,86.8,175.7,76.4,182.7,64.5z
			 M60.9,261.6c6.2-10.5,12.4-20.4,20-33.2c7.2,12.5,13,22.4,19.3,33.2H60.9z M80.6,165.3c-6.8-11.2-12.9-21.3-19.6-32.5h39.4
			C93.8,143.8,87.6,153.8,80.6,165.3z M182.7,330.6c-6.8-11.6-12.9-22.4-19.9-34.3h40.4C196.5,307.5,190,318.3,182.7,330.6z
			 M224.9,261.8c-26.9,0-55.1,0-84.6-0.1c-12.8-21.1-26-42.7-39.3-64.6c13.4-21.8,26.6-43.4,39.5-64.4h84.3
			c13.6,21.8,26.9,43,40.5,64.4C252.1,218.1,238.8,239.5,224.9,261.8z M305.8,261.5h-41.6c7.5-11.3,13.9-20.9,20.8-31.4
			C292.2,241,298.6,250.8,305.8,261.5z"/>
		<path class="st0" d="M1132.5,167.7c17.9-5.8,34.5-11.2,54.9-17.8c-12.5,17.5-22.8,31.9-34.4,48c11,14.5,21.9,29.1,35.6,47
			c-20.7-6.9-37.5-12.5-55.2-18.3c-11.6,14.7-22.9,29.1-35.3,44.7c-0.2-19.5-0.3-37.6-0.5-55.6c-17.6-5.8-34.6-11.3-55.2-18.1
			c20.3-6.9,37.5-12.5,55.2-18.4c-0.1-18.4-0.2-36.8-0.3-56.6C1109.7,138.4,1121.1,153.3,1132.5,167.7z"/>
	</g>
</g>
<polygon class="st0" points="737.5,112.5 737.5,172.5 642.5,172.5 642.5,367 582.5,367 582.5,172.5 487.5,172.5 487.5,112.5 
	582.5,112.5 582.5,27 642.5,27 642.5,112.5 "/>
<path class="st0" d="M1082,328.7c34,0,65.1-13,88.4-34c-29.8,39.8-77.3,65.6-130.8,65.6c-90.1,0-163.3-73.1-163.3-163.3
	s73.1-163.3,163.3-163.3c53.5,0,101.1,25.8,130.8,65.6c-23.3-21.2-54.4-34-88.4-34c-72.8,0-131.8,59-131.8,131.8
	S1009.2,328.7,1082,328.7z"/>
</svg>
